PathFileType	4	(X/Y/Z)	C:\Users\Caesar\Desktop\毕业设计\1-评估老年人缺少的力\Data\s4\S4_T_02_fixed.trc	Maker trajectories (.TRC) by Lee-Son ToolBox																																																																																				
DataRate	CameraRate	NumFrames	NumMarkers	Units	OrigDataRate	OrigDataStartFrame	OrigNumFrames																																																																																	
100	100	15	29	mm	100	126	1000																																																																																	
Frame#	Time	Unlabeled27			Unlabeled48			Unlabeled26			HEAD			C7			T10			STERN			LSHO			LELB			RSHO			RELB			LASI			RASI			LPSI			RPSI			LHIP			LTHI			LKNE			LTIB			LANK			LHEE			LTOE			RHIP			RTHI			RKNE			RTIB			RANK			RHEE			RTOE		
		X1	Y1	Z1	X2	Y2	Z2	X3	Y3	Z3	X4	Y4	Z4	X5	Y5	Z5	X6	Y6	Z6	X7	Y7	Z7	X8	Y8	Z8	X9	Y9	Z9	X10	Y10	Z10	X11	Y11	Z11	X12	Y12	Z12	X13	Y13	Z13	X14	Y14	Z14	X15	Y15	Z15	X16	Y16	Z16	X17	Y17	Z17	X18	Y18	Z18	X19	Y19	Z19	X20	Y20	Z20	X21	Y21	Z21	X22	Y22	Z22	X23	Y23	Z23	X24	Y24	Z24	X25	Y25	Z25	X26	Y26	Z26	X27	Y27	Z27	X28	Y28	Z28	X29	Y29	Z29
																																																																																								
126	1.25	765.002	168.223	1090.83	774.227	168.904	1794.86	214.271	171.379	1098.26	592.259	1677.09	1431.83	409.851	1498.45	1437.89	355.832	1365.77	1443.61	570.621	1388.81	1439.5	477.487	1489.7	1294.58	555.81	1207.04	1176.48	482.54	1493.2	1595.65	574.429	1198.7	1707.09	506.598	1045.51	1315.92	519.966	1022.95	1552.29	315.14	1109.71	1385.83	319.613	1101.38	1511.12	411.123	1007.31	1269.38	452.862	772.8	1287.55	442.582	631.54	1308.46	424.676	378.931	1334.42	386.647	282.632	1350.27	350.084	243.518	1346.69	561.438	226.335	1386.15	440.413	991.526	1608.24	482.636	849.025	1582.02	448.279	606.603	1568.84	376.134	515.106	1564.72	144.928	413.75	1553.27	92.1584	431.552	1552.12	182.194	239.41	1511.87
127	1.26	765.003	168.227	1090.83	774.233	168.914	1794.86	214.228	171.42	1098.23	592.512	1678.16	1431.65	409.774	1499.71	1437.02	355.733	1367.02	1442.42	570.595	1390.55	1439.2	477.613	1491.15	1293.96	556.511	1208.75	1175.95	482.008	1494.38	1594.92	574.769	1200.37	1706.57	505.929	1046.06	1315.28	520.268	1024.92	1551.54	314.937	1111.02	1385.53	319.745	1102.95	1510.84	410.165	1008.03	1269.13	447.601	773.235	1287.25	434.438	631.901	1308.18	414.932	379.698	1334.31	376.427	283.47	1350.69	339.641	244.674	1347.11	550.897	225.714	1386.3	441.157	993.627	1607.99	486.638	851.905	1581.94	458.695	609.022	1568.05	387.262	517.365	1563.75	156.557	414.198	1552.99	103.093	430.372	1551.99	199.505	241.474	1512.21
128	1.27	765.003	168.226	1090.83	774.235	168.917	1794.85	214.217	171.434	1098.19	592.732	1679.03	1431.59	409.607	1500.83	1436.17	355.525	1368.13	1441.24	570.368	1392	1438.86	477.66	1492.43	1293.34	557.168	1210.29	1175.42	481.389	1495.36	1594.22	574.99	1201.76	1705.92	505.01	1046.51	1314.6	520.506	1026.66	1550.73	314.532	1112.16	1385.45	319.796	1104.34	1510.77	408.93	1008.65	1268.94	442.499	773.693	1287.17	426.67	632.34	1308.02	405.364	380.523	1334.26	366.295	284.413	1351.09	329.188	246.032	1347.51	540.346	225.083	1386.45	441.922	995.562	1607.8	490.557	854.809	1581.84	468.879	611.57	1567.24	398.403	519.483	1562.8	168.634	413.645	1552.61	114.47	427.997	1551.68	217.83	242.899	1512.69
129	1.28	765.003	168.223	1090.83	774.236	168.916	1794.85	214.224	171.431	1098.16	592.918	1679.72	1431.61	409.371	1501.82	1435.34	355.22	1369.12	1440.09	569.965	1393.14	1438.49	477.65	1493.55	1292.72	557.768	1211.64	1174.92	480.702	1496.14	1593.56	575.083	1202.88	1705.14	503.843	1046.87	1313.85	520.666	1028.16	1549.87	313.931	1113.13	1385.58	319.755	1105.56	1510.91	407.403	1009.18	1268.83	437.585	774.169	1287.25	419.332	632.849	1307.96	395.995	381.397	1334.25	356.251	285.472	1351.48	318.724	247.583	1347.89	529.782	224.449	1386.6	442.68	997.311	1607.66	494.342	857.716	1581.71	478.803	614.218	1566.41	409.548	521.409	1561.86	181.179	412.103	1552.11	126.344	424.494	1551.2	237.015	243.716	1513.31
130	1.29	765	168.22	1090.82	774.235	168.913	1794.85	214.238	171.419	1098.13	593.075	1680.25	1431.69	409.083	1502.68	1434.56	354.824	1370	1438.98	569.418	1394	1438.08	477.596	1494.5	1292.1	558.303	1212.78	1174.5	479.964	1496.74	1592.95	575.054	1203.74	1704.23	502.445	1047.15	1313.03	520.733	1029.41	1548.96	313.144	1113.97	1385.92	319.616	1106.6	1511.23	405.591	1009.63	1268.79	432.872	774.658	1287.44	412.429	633.416	1307.98	386.826	382.313	1334.29	346.281	286.645	1351.85	308.256	249.301	1348.24	519.205	223.823	1386.74	443.4	998.864	1607.55	497.945	860.606	1581.54	488.442	616.952	1565.58	420.685	523.131	1560.95	194.207	409.615	1551.5	138.765	419.933	1550.53	256.948	243.968	1514.04
131	1.3	764.996	168.22	1090.82	774.235	168.909	1794.85	214.252	171.406	1098.12	593.205	1680.64	1431.81	408.758	1503.44	1433.84	354.344	1370.78	1437.96	568.763	1394.58	1437.64	477.504	1495.29	1291.5	558.769	1213.72	1174.17	479.191	1497.17	1592.41	574.919	1204.35	1703.2	500.842	1047.36	1312.17	520.691	1030.43	1548.04	312.185	1114.69	1386.43	319.372	1107.5	1511.72	403.524	1010.01	1268.82	428.346	775.153	1287.69	405.913	634.026	1308.06	377.839	383.261	1334.37	336.368	287.921	1352.19	297.789	251.143	1348.57	508.616	223.212	1386.87	444.047	1000.23	1607.45	501.324	863.469	1581.32	497.77	619.77	1564.76	431.805	524.668	1560.07	207.728	406.251	1550.79	151.776	414.388	1549.71	277.544	243.708	1514.85
132	1.31	764.988	168.225	1090.81	774.235	168.907	1794.85	214.267	171.393	1098.12	593.313	1680.9	1431.95	408.401	1504.11	1433.18	353.784	1371.49	1437.03	568.042	1394.91	1437.17	477.374	1495.93	1290.93	559.165	1214.46	1173.95	478.402	1497.47	1591.94	574.7	1204.76	1702.1	499.071	1047.51	1311.28	520.532	1031.24	1547.13	311.077	1115.31	1387.08	319.014	1108.28	1512.32	401.257	1010.33	1268.92	423.974	775.645	1287.98	399.703	634.663	1308.18	369	384.239	1334.49	326.5	289.277	1352.51	287.332	253.066	1348.87	498.011	222.62	1386.98	444.59	1001.41	1607.36	504.445	866.298	1581.07	506.753	622.681	1563.97	442.887	526.066	1559.24	221.754	402.102	1550.03	165.414	407.945	1548.76	298.742	242.995	1515.68
133	1.32	764.974	168.235	1090.8	774.236	168.906	1794.85	214.285	171.381	1098.12	593.404	1681.06	1432.1	408.011	1504.69	1432.59	353.147	1372.13	1436.22	567.29	1395.05	1436.68	477.201	1496.44	1290.42	559.49	1215.04	1173.85	477.616	1497.65	1591.53	574.415	1204.99	1700.95	497.18	1047.61	1310.4	520.25	1031.89	1546.24	309.847	1115.84	1387.8	318.535	1108.94	1513	398.863	1010.6	1269.07	419.701	776.123	1288.29	393.701	635.312	1308.31	360.266	385.245	1334.62	316.663	290.689	1352.81	276.896	255.03	1349.18	487.388	222.05	1387.09	444.998	1002.45	1607.28	507.281	869.089	1580.78	515.354	625.691	1563.26	453.898	527.381	1558.48	236.288	397.268	1549.28	179.706	400.697	1547.7	320.495	241.898	1516.49
134	1.33	764.954	168.249	1090.79	774.237	168.905	1794.85	214.309	171.369	1098.12	593.482	1681.12	1432.25	407.588	1505.2	1432.08	352.439	1372.71	1435.54	566.532	1395	1436.17	476.974	1496.82	1289.98	559.746	1215.49	1173.88	476.855	1497.73	1591.19	574.086	1205.09	1699.81	495.227	1047.68	1309.57	519.843	1032.41	1545.41	308.529	1116.28	1388.56	317.933	1109.5	1513.7	396.421	1010.82	1269.27	415.47	776.577	1288.61	387.809	635.961	1308.45	351.59	386.277	1334.76	306.847	292.135	1353.09	266.494	257.009	1349.48	476.735	221.507	1387.18	445.248	1003.35	1607.2	509.805	871.839	1580.47	523.529	628.798	1562.64	464.792	528.663	1557.85	251.329	391.852	1548.57	194.668	392.735	1546.56	342.765	240.502	1517.23
135	1.34	764.928	168.267	1090.77	774.237	168.904	1794.86	214.34	171.355	1098.13	593.551	1681.08	1432.4	407.134	1505.62	1431.65	351.665	1373.24	1435	565.775	1394.82	1435.65	476.677	1497.1	1289.6	559.934	1215.84	1174.01	476.134	1497.73	1590.91	573.731	1205.09	1698.7	493.267	1047.71	1308.82	519.313	1032.84	1544.65	307.154	1116.6	1389.28	317.211	1109.96	1514.36	394.01	1010.99	1269.49	411.226	776.997	1288.95	381.944	636.604	1308.57	342.933	387.335	1334.9	297.043	293.601	1353.37	256.131	258.989	1349.78	466.039	220.997	1387.26	445.32	1004.16	1607.12	511.998	874.536	1580.16	531.228	631.986	1562.14	475.512	529.946	1557.36	266.874	385.947	1547.93	210.307	384.144	1545.38	365.519	238.902	1517.88
136	1.35	764.899	168.288	1090.75	774.237	168.902	1794.86	214.374	171.34	1098.14	593.616	1680.94	1432.56	406.652	1505.97	1431.33	350.832	1373.71	1434.6	565.008	1394.51	1435.12	476.299	1497.27	1289.31	560.057	1216.11	1174.25	475.467	1497.66	1590.69	573.372	1205	1697.67	491.346	1047.71	1308.19	518.659	1033.2	1543.99	305.752	1116.83	1389.93	316.379	1110.32	1514.95	391.694	1011.11	1269.7	406.932	777.377	1289.3	376.045	637.238	1308.68	334.265	388.413	1335.01	287.243	295.077	1353.63	245.811	260.963	1350.08	455.289	220.524	1387.33	445.198	1004.88	1607.06	513.838	877.163	1579.87	538.395	635.219	1561.8	485.996	531.242	1557.04	282.921	379.623	1547.36	226.622	375.001	1544.16	388.725	237.2	1518.45
137	1.36	764.871	168.308	1090.72	774.235	168.901	1794.86	214.406	171.325	1098.15	593.68	1680.7	1432.72	406.148	1506.22	1431.1	349.948	1374.11	1434.34	564.212	1394.09	1434.61	475.835	1497.35	1289.1	560.12	1216.32	1174.56	474.862	1497.53	1590.53	573.03	1204.86	1696.77	489.492	1047.65	1307.7	517.886	1033.51	1543.45	304.341	1116.94	1390.47	315.442	1110.59	1515.43	389.517	1011.16	1269.9	402.574	777.711	1289.64	370.083	637.861	1308.77	325.574	389.504	1335.11	277.443	296.557	1353.88	235.538	262.931	1350.36	444.481	220.091	1387.41	444.876	1005.55	1607.03	515.312	879.689	1579.64	544.968	638.45	1561.62	496.186	532.539	1556.9	299.467	372.928	1546.82	243.61	365.377	1542.88	412.347	235.496	1518.97
138	1.37	764.848	168.326	1090.7	774.232	168.9	1794.86	214.429	171.311	1098.16	593.748	1680.34	1432.88	405.627	1506.38	1430.97	349.029	1374.43	1434.21	563.364	1393.57	1434.12	475.286	1497.33	1288.97	560.13	1216.47	1174.92	474.32	1497.35	1590.41	572.725	1204.67	1696.01	487.721	1047.52	1307.35	516.998	1033.79	1543.06	302.936	1116.97	1390.88	314.404	1110.76	1515.81	387.494	1011.13	1270.06	398.158	777.997	1289.96	364.054	638.471	1308.85	316.855	390.596	1335.2	267.648	298.032	1354.12	225.312	264.894	1350.63	433.617	219.694	1387.49	444.356	1006.15	1607.05	516.417	882.076	1579.49	550.886	641.619	1561.62	506.026	533.809	1556.93	316.513	365.9	1546.24	261.265	355.351	1541.52	436.345	233.887	1519.49
139	1.38	764.831	168.342	1090.69	774.228	168.901	1794.86	214.435	171.302	1098.18	593.827	1679.86	1433.06	405.09	1506.44	1430.92	348.092	1374.67	1434.18	562.444	1392.96	1433.67	474.665	1497.21	1288.9	560.097	1216.57	1175.32	473.84	1497.1	1590.33	572.477	1204.45	1695.42	486.033	1047.29	1307.15	516.006	1034.01	1542.81	301.542	1116.9	1391.17	313.27	1110.84	1516.07	385.618	1011.01	1270.18	393.71	778.234	1290.25	357.979	639.065	1308.94	308.114	391.679	1335.28	257.871	299.492	1354.33	215.129	266.854	1350.87	422.702	219.327	1387.58	443.649	1006.67	1607.12	517.158	884.28	1579.45	556.091	644.656	1561.79	515.465	535.015	1557.12	334.056	358.588	1545.6	279.574	345.022	1540.07	460.672	232.469	1520.03
140	1.39	764.821	168.355	1090.67	774.222	168.903	1794.86	214.42	171.298	1098.19	593.922	1679.26	1433.26	404.541	1506.39	1430.95	347.152	1374.81	1434.25	561.445	1392.28	1433.27	473.983	1496.99	1288.9	560.033	1216.59	1175.74	473.411	1496.8	1590.29	572.297	1204.22	1695.03	484.414	1046.95	1307.06	514.924	1034.18	1542.7	300.165	1116.76	1391.36	312.052	1110.83	1516.25	383.859	1010.78	1270.28	389.265	778.42	1290.5	351.887	639.64	1309.06	299.366	392.745	1335.37	248.127	300.929	1354.51	204.986	268.811	1351.1	411.748	218.982	1387.67	442.775	1007.11	1607.24	517.55	886.255	1579.55	560.528	647.487	1562.13	524.453	536.12	1557.44	352.093	351.058	1544.87	298.525	334.515	1538.55	485.272	231.337	1520.64
